<?xml version="1.0" encoding="utf-8"?>
<!-- Generator: Adobe Illustrator 26.0.1, SVG Export Plug-In . SVG Version: 6.00 Build 0)  -->
<svg id="butterfly-path" x="0px" y="0px" viewBox="0 0 1292.3 920" style="enable-background:new 0 0 1292.3 920;" xml:space="preserve">
<defs>
  <linearGradient id="citizenship__achieved">
    <stop offset="0%" style="stop-color:#ae8625;" />
    <stop offset="45%" style="stop-color:#ae8625;" />
    <stop offset="50%" style="stop-color:#f7ef8a;" />
    <stop offset="65%" style="stop-color:#ae8625;" />
    <stop offset="100%" style="stop-color:#ae8625;" />
  </linearGradient>
</defs>
<path id="butterfly__wings" d="M1175.4,544
	c-5.4,21.3-19.9,39.1-39.6,48.6c12.1,16.5,13.7,38.5,4,56.5c-10,17-26.9,29-46.3,32.8c0,0,27.8,94.6-44.7,126.2
	c-21.7,8.6-46.3,4.5-64.1-10.6c0,0-2.7,34.2-50.1,43.4s-118-45.4-139.1-98c0,0-64.5-90.1-71.5-108.5c0,0,11.3,193-20.5,193
	s-19-193-19-193S573.8,847.9,476.3,842.7c-27.6,1.3-51.7-18.6-55.5-45.9c0,0-43.5,42-95-10.3c-30.6-25.9-36.9-70.6-14.5-103.9
	c0,0-36.9-4-46.1-32.8c-7.5-18.6-5.5-39.7,5.3-56.6c-24.9-8.9-41.3-32.6-40.9-59c-2.6-48.8,35.9-52.7,35.9-52.7s-34.4-32.8,1.3-82.7
	c30.4-42.1,83.1-21,99-14.5c-9.2-11.7-47.5-55.1-72.5-149.7c0,0-14.5-65.7-72.6-80.1c0,0,0-27.6,51.3-31.5c0,0-7.9-22.3,15.9-22.3
	c8.5,1.9,16.6,5.4,23.7,10.5c12.4,6.6,27.2,6.6,39.6,0c10.5-5.2,29-9.2,38.5,3.9c3.6-13.8,17.7-21.8,31.4-18.1
	c0.4,0.1,0.8,0.2,1.1,0.3c11.1,3.3,19.3,12.8,21,24.2c0,0,17.1-18.6,54.1-10.6s101.6,43.4,141,155.1c0,0,34.3,114.9,38.5,190.5
	l11.6-130.1c-2.5-3.5-3.9-7.6-4-11.9c-0.3-7.1,3-13.9,8.8-18c-4.7-37.3-14.1-73.9-28.1-108.9C642.5,132,597.4,60.1,511.4,29.9
	c-5.6-2.2-18.5-5.2-22.2-1s-1.4,9.2,3.1,18.2l-5.6,2.8c-6-12.8-6.8-20.4-2.2-25.5c7.7-8.4,26.9-1.4,29.1,0
	c150.8,51,181.5,229.7,186.5,270.5c1.2-0.1,2.4-0.1,3.6,0c1.6,0,3.1,0.2,4.6,0.6c5-40.2,35.6-219.2,187.8-270.8
	c2-0.8,21.4-7.8,29.1,0c4.6,5,3.8,12.8-2.2,25.5l-5.7-2.8c4.5-9.1,5.6-15.6,3.1-18.2s-16.5-1.1-22.2,1
	c-87.7,28.6-132.9,101.2-155.8,157.5c-14.2,35.1-23.8,72-28.3,109.6c5.1,4.2,7.9,10.6,7.7,17.2c0.2,4.6-1.1,9.1-3.8,12.8
	c3.6,25.6,5.7,101.5,6.4,127.3c0,0,9.2-118.2,31.7-154.9c0,0,30.4-149.8,143.8-186.6c20.1-7.5,42.6-5.1,60.8,6.5
	c3.4-12.2,13.8-21,26.4-22.3c5.9-1.8,12.4-1.2,17.9,1.8c5.4,3,9.4,8,11.1,14c0,0,5.3-14.4,50.1,0c0,0,7.9,12.8,46.3-12.8
	c0,0,30.2-6.6,21,22.3c21.6-2.8,42.7,8.2,52.8,27.6c0,0-56.8,12-77.8,98.6c-13.8,50.9-38.1,98.4-71.3,139.4
	c36.5-19.3,81.5-10.5,108.2,21c13.9,22.3,11.7,51-5.2,71C1163.2,492.7,1177.1,517.6,1175.4,544L1175.4,544z"/>
<g id="butterfly__paths">
	<path id="path_40" class="butterfly__path" d="M846.1,799.9L704.9,544.2"/>
	<path id="path_39" class="butterfly__path" d="M936.1,774.9L706.8,542.2"/>
	<path id="path_38" class="butterfly__path" d="M885.6,689.3L702.9,542.2"/>
	<path id="path_37" class="butterfly__path" d="M1020.1,662.4L704.9,544.2"/>
	<path id="path_36" class="butterfly__path" d="M1095.6,589.9L705,544.2"/>
	<path id="path_35" class="butterfly__path" d="M828.1,532.4l-121.3,9.8"/>
	<path id="path_34" class="butterfly__path" d="M923.6,486.9L705,544.2"/>
	<path id="path_33" class="butterfly__path" d="M1019.6,414.5L704.9,544.2"/>
	<line id="path_32" class="butterfly__path" x1="885.6" y1="687.9" x2="1132.6" y2="484.9"/>
	<line id="path_31" class="butterfly__path" x1="1018.2" y1="662.9" x2="1132.6" y2="484.9"/>
	<line id="path_30" class="butterfly__path" x1="1095.6" y1="589.9" x2="1132.6" y2="484.9"/>
	<line id="path_29" class="butterfly__path" x1="828.1" y1="532.4" x2="1132.6" y2="484.9"/>
	<line id="path_28" class="butterfly__path" x1="923.6" y1="486.9" x2="1132.6" y2="484.9"/>
	<line id="path_27" class="butterfly__path" x1="1019.6" y1="414.5" x2="1132.6" y2="484.9"/>
	<path id="path_26" class="butterfly__path" d="M845,380.9L702.9,542.2"/>
	<path id="path_25" class="butterfly__path" d="M1018.2,293.7L704.9,544.2"/>
	<line id="path_24" class="butterfly__path" x1="845" y1="380.9" x2="1018.2" y2="293.7"/>
	<line id="path_23" class="butterfly__path" x1="1044.6" y1="211.9" x2="1018.2" y2="293.7"/>
	<path id="path_22" class="butterfly__path" d="M795.6,270.4L705,544.2"/>
	<path id="path_21" class="butterfly__path" d="M940.6,155.9L702.9,542.2"/>
	<line id="path_20" class="butterfly__path" x1="795.6" y1="270.4" x2="940.6" y2="155.9"/>
	<line id="path_19" class="butterfly__path" x1="940.6" y1="155.9" x2="1118.6" y2="138.9"/>
	<path id="path_18" class="butterfly__path" d="M579.1,774.4L705,547.1"/>
	<path id="path_17" class="butterfly__path" d="M506.6,827.9l200.2-280.8"/>
	<path id="path_16" class="butterfly__path" d="M428.9,795.6L705,547.1"/>
	<path id="path_15" class="butterfly__path" d="M330.6,780.4l372.7-235.3"/>
	<path id="path_14" class="butterfly__path" d="M309.8,713.8L703.3,545"/>
	<path id="path_13" class="butterfly__path" d="M270.6,619.9l432.7-74.8"/>
	<path id="path_12" class="butterfly__path" d="M238.7,553.7l466.3-9.6"/>
	<path id="path_11" class="butterfly__path" d="M265.4,482.9L703.3,545"/>
	<path id="path_10" class="butterfly__path" d="M370.6,366.4l332.7,178.7"/>
	<path id="path_9" class="butterfly__path" d="M455.1,442.4l247.8,100.8"/>
	<line id="path_8" class="butterfly__path" x1="515.6" y1="269.9" x2="455.1" y2="441.4"/>
	<line id="path_7" class="butterfly__path" x1="515.6" y1="269.9" x2="704.9" y2="544.2"/>
	<line id="path_6" class="butterfly__path" x1="372.7" y1="239.9" x2="370.6" y2="366.4"/>
	<path id="path_5" class="butterfly__path" d="M372.8,240.1l328.3,302.8"/>
	<line id="path_4" class="butterfly__path" x1="372.7" y1="239.9" x2="515.6" y2="269.9"/>
	<line id="path_3" class="butterfly__path" x1="526.1" y1="146.9" x2="372.7" y2="240.1"/>
	<path id="path_2" class="butterfly__path" d="M527.1,146.9l176.8,395.3"/>
	<path id="path_1" class="butterfly__path" d="M276.1,133.9l248,11.5"/>
</g>
<path id="butterfly__head" d="M676.1,457.7l11.5-128.9
	c0.1-0.7-0.1-1.4-0.5-2c-2.1-3.3-3.2-7.1-3.4-11c-0.3-6.5,2.5-12.8,7.5-17c0.8-0.7,1.2-1.7,1.1-2.8c-4.8-36.7-14.1-72.7-27.8-107.1
	c-22.6-55.5-67.7-127.5-153.7-157.6c-5.6-2.2-18.5-5.2-22.2-1c-3.3,3.8-1.8,8.1,1.7,15.5c0.7,1.5,0.1,3.4-1.4,4.1l0,0
	c-1.5,0.8-3.4,0.1-4.2-1.4c0,0,0-0.1-0.1-0.1c-4.8-11-5.1-17.9-0.8-22.6c7.5-8.2,26-1.7,28.9-0.1c0.1,0.1,0.3,0.1,0.4,0.2
	C660.6,76,693,248.1,699,293.7c0.2,1.5,1.5,2.6,3,2.7l1,0.1c0.5,0,1.1,0,1.6,0.1c1.7,0.2,3.2-1,3.4-2.6
	c6.2-45.7,39-217.3,187.3-267.6c2-0.8,21.4-7.8,29.1,0c4.2,4.6,3.9,11.5-0.8,22.6c-0.7,1.6-2.5,2.3-4.1,1.6c-0.1,0-0.1,0-0.1-0.1
	l0,0c-1.5-0.7-2.1-2.5-1.5-4c3.4-7.7,4.1-13.2,1.8-15.6c-2.6-2.7-16.5-1.1-22.2,1c-87.8,28.4-133,101-156,157.3
	c-14,34.6-23.5,70.9-28.1,108c-0.1,1,0.2,1.9,0.9,2.6c4.4,4.2,6.8,10.1,6.6,16.2c0.2,4.2-0.9,8.3-3.2,11.8c-0.4,0.6-0.6,1.3-0.5,2.1
	c3.5,26.7,5.6,100.7,6.3,126.2l-0.1,179.6c0,0.1,0,0.1,0,0.2c0.3,4.5,10.9,192.9-20.5,192.9c-31.3,0-19.4-186.5-19-192.8
	c0-0.1,0-0.2,0-0.3l-7.3-166.2C676.6,469.2,676.1,457.9,676.1,457.7z"/>
<g id="butterfly__questions">
</g>
<g id="butterfly__circles">
	<circle id="Q29" cx="270.6" cy="619.9" r="5.8"/>
	<circle id="Q28" cx="885.6" cy="687.9" r="5.8"/>
	<circle id="Q27" cx="1018.6" cy="662.9" r="5.8"/>
	<circle id="Q26" cx="1094.6" cy="589.9" r="5.8"/>
	<circle id="Q25" cx="828.6" cy="531.9" r="5.8"/>
	<circle id="Q24" cx="923.6" cy="486.9" r="5.8"/>
	<circle id="Q23" cx="1019.6" cy="414.5" r="5.8"/>
	<circle id="Q22" cx="1132.6" cy="484.9" r="5.8"/>
	<circle id="Q21" cx="846.6" cy="799.9" r="5.8"/>
	<circle id="Q20" cx="936.6" cy="775.9" r="5.8"/>
	<circle id="Q19" cx="795.6" cy="269.9" r="5.8"/>
	<circle id="Q18" cx="940.6" cy="155.9" r="5.8"/>
	<circle id="Q17" cx="1118.6" cy="138.9" r="5.8"/>
	<circle id="Q16" cx="845.6" cy="380.9" r="5.8"/>
	<circle id="Q15" cx="1018.2" cy="293.7" r="5.8"/>
	<circle id="Q14" cx="1044.6" cy="211.9" r="5.8"/>
	<circle id="Q13" cx="506.6" cy="827.9" r="5.8"/>
	<circle id="Q12" cx="578.6" cy="774.9" r="5.8"/>
	<circle id="Q11" cx="428.4" cy="795.9" r="5.8"/>
	<circle id="Q10" cx="330.6" cy="780.9" r="5.8"/>
	<circle id="Q08" cx="239.9" cy="553.7" r="5.8"/>
	<circle id="Q09" cx="309.8" cy="713.8" r="5.8"/>
	<circle id="Q07" cx="264.9" cy="483.8" r="5.8"/>
	<circle id="Q06" cx="455.6" cy="440.9" r="5.8"/>
	<circle id="Q05" cx="370.6" cy="365.9" r="5.8"/>
	<circle id="Q04" cx="515.6" cy="269.9" r="5.8"/>
	<circle id="Q03" cx="371.6" cy="239.9" r="5.8"/>
	<circle id="Q02" cx="525.1" cy="147" r="5.8"/>
	<circle id="Q01" cx="275.6" cy="132.9" r="5.8"/>
</g>
<g id="butterfly__toggle">
</g>
</svg>
