<svg xmlns="http://www.w3.org/2000/svg" viewBox="0 0 1292.32 862.23"><defs><style>.cls-1{fill:#facbaa;}.cls-2,.cls-4{fill:none;stroke-linecap:round;stroke-width:3px;}.cls-2{stroke:#f7bd94;}.cls-3{fill:#fff;stroke:#c4c4c4;stroke-width:4.37px;}.cls-4{stroke:#d5111d;}.cls-5{font-size:14px;font-family:Roboto-Medium, Roboto;font-weight:500;}.cls-6{letter-spacing:-0.02em;}.cls-7{letter-spacing:-0.01em;}.cls-8{letter-spacing:-0.01em;}.cls-9{letter-spacing:-0.01em;}.cls-10{letter-spacing:0.01em;}.cls-11{letter-spacing:0.02em;}.cls-12{fill:#977b67;}</style></defs><g id="Layer_2" data-name="Layer 2"><g id="butterfly"><path class="cls-1" d="M1142.13,524.78a74.08,74.08,0,0,1-39.6,48.62,53,53,0,0,1,4,56.53,69.38,69.38,0,0,1-46.27,32.8s27.81,94.56-44.73,126.21a63.14,63.14,0,0,1-64.08-10.6s-2.69,34.2-50.12,43.39-118-45.43-139.06-98c0,0-64.55-90.14-71.47-108.52,0,0,11.33,193-20.5,193s-19-193-19-193S540.51,828.75,443,823.52a53.41,53.41,0,0,1-55.5-45.94s-43.45,42-95-10.34A78.61,78.61,0,0,1,278,663.36s-36.92-4-46.14-32.79A62.13,62.13,0,0,1,237.13,574,61.56,61.56,0,0,1,196.24,515c-2.56-48.75,35.89-52.7,35.89-52.7s-34.35-32.8,1.28-82.7c30.38-42.11,83.06-21.05,99-14.54-9.23-11.74-47.55-55.13-72.54-149.69,0,0-14.49-65.72-72.55-80.14,0,0,0-27.57,51.27-31.53,0,0-7.95-22.33,15.89-22.33a65.12,65.12,0,0,1,23.71,10.47,42.25,42.25,0,0,0,39.61,0c10.51-5.24,29-9.19,38.45,3.95a25.67,25.67,0,0,1,32.68-17.61,30,30,0,0,1,21,24.25S427.08,83.87,464,91.79s101.64,43.39,141,155.05c0,0,34.35,114.85,38.45,190.52l11.66-130.14a21.9,21.9,0,0,1-4-11.87,21,21,0,0,1,8.84-18,443.35,443.35,0,0,0-28.07-108.85c-22.68-55.64-67.8-127.62-153.8-157.73-5.64-2.17-18.46-5.24-22.17-1S454.51,18.94,459,28l-5.64,2.81c-6-12.76-6.79-20.42-2.18-25.52,7.69-8.42,26.92-1.4,29.1,0,150.85,51,181.49,229.7,186.48,270.54a16.57,16.57,0,0,1,3.59,0,17.64,17.64,0,0,1,4.62.64c5-40.2,35.63-219.24,187.77-270.8,2-.76,21.4-7.78,29.09,0,4.61,5,3.84,12.76-2.18,25.52L884,28.39c4.49-9.06,5.64-15.57,3.08-18.25s-16.54-1.15-22.18,1C777.24,39.62,732,112.23,709.05,168.51a429.39,429.39,0,0,0-28.33,109.62,21.48,21.48,0,0,1,7.69,17.22,20,20,0,0,1-3.84,12.76c3.58,25.64,5.72,101.46,6.41,127.34,0,0,9.23-118.17,31.66-154.92,0,0,30.37-149.82,143.8-186.57a68.47,68.47,0,0,1,60.75,6.5A30.63,30.63,0,0,1,953.6,78.13a23,23,0,0,1,17.86,1.78,22.94,22.94,0,0,1,11.1,14s5.26-14.42,50.12,0c0,0,7.94,12.76,46.26-12.76,0,0,30.25-6.64,21,22.33a52.07,52.07,0,0,1,52.81,27.56S1096,143,1075,229.61A377.78,377.78,0,0,1,1003.71,369,87.93,87.93,0,0,1,1111.88,390a60.4,60.4,0,0,1-5.25,71,67.57,67.57,0,0,1,35.5,63.81Z" transform="translate(-1.09 -1.12)"/><path id="A06f" class="cls-2" d="M1099.27,464.71l-247,203.93L669.6,521.5" transform="translate(-1.09 -1.12)"/><circle id="Q28" class="cls-3" cx="851.18" cy="666.1" r="5.81"/><path class="cls-2" d="M902.77,754.21,673.46,521.5" transform="translate(-1.09 -1.12)"/><path id="A01b" class="cls-4" d="M491.77,125.21l-150.5,93.5L669.6,521.5" transform="translate(-1.09 -1.12)"/><path id="A01a" class="cls-2" d="M491.77,125.21l-150.5,93.5L669.6,521.5" transform="translate(-1.09 -1.12)"/><path id="A02a" class="cls-2" d="M492.77,126.21,669.6,521.5" transform="translate(-1.09 -1.12)"/><path id="A02b" class="cls-2" d="M242.77,113.21l248,11.5" transform="translate(-1.09 -1.12)"/><path id="A09" class="cls-2" d="M338.27,218.71l144,31-60.5,171L669.6,521.5" transform="translate(-1.09 -1.12)"/><path id="A14" class="cls-2" d="M338.27,218.71l144,31-60.5,170.5L670,524.38" transform="translate(-1.09 -1.12)"/><path id="A10" class="cls-2" d="M337.27,218.71v127L670,524.38" transform="translate(-1.09 -1.12)"/><path id="A08" class="cls-2" d="M1011.27,191.21,984.9,273,671.64,523.48" transform="translate(-1.09 -1.12)"/><path id="A11" class="cls-2" d="M1085.77,117.71l-177.5,19L669.6,521.5" transform="translate(-1.09 -1.12)"/><path id="A12a" class="cls-2" d="M1086.27,121.21l-179,12-145,116.5L674.8,523" transform="translate(-1.09 -1.12)"/><path id="A12b" class="cls-2" d="M1086.27,121.21l-179,12-145,116.5L671.64,523.48" transform="translate(-1.09 -1.12)"/><path id="A13" class="cls-2" d="M1011.27,191.21,984.9,273,813.52,358.21,669.6,521.5" transform="translate(-1.09 -1.12)"/><path id="A21" class="cls-2" d="M815.77,784.71,671.64,523.48" transform="translate(-1.09 -1.12)"/><path id="A06e" class="cls-2" d="M1100.27,464.71l-113.5,177L671.64,523.48" transform="translate(-1.09 -1.12)"/><path id="A06d" class="cls-2" d="M1100.27,464.21l-38,105L671.64,523.48" transform="translate(-1.09 -1.12)"/><path id="A06a" class="cls-2" d="M1099.77,463.21,986.3,393.78,671.64,523.48" transform="translate(-1.09 -1.12)"/><path id="A06b" class="cls-2" d="M1098.27,464.71l-208,1.5L671.64,523.48" transform="translate(-1.09 -1.12)"/><path id="A06c" class="cls-2" d="M1099.27,463.21l-304.5,48.5L673.46,521.5" transform="translate(-1.09 -1.12)"/><path id="A25" class="cls-2" d="M545.77,753.71,671.64,526.4" transform="translate(-1.09 -1.12)"/><path id="A26" class="cls-2" d="M473.27,807.21,673.46,526.4" transform="translate(-1.09 -1.12)"/><path id="A24" class="cls-2" d="M395.54,774.93,671.64,526.4" transform="translate(-1.09 -1.12)"/><path id="A23" class="cls-2" d="M297.27,759.71,670,524.38" transform="translate(-1.09 -1.12)"/><path id="A22" class="cls-2" d="M276.46,693.13,670,524.38" transform="translate(-1.09 -1.12)"/><path id="A19" class="cls-2" d="M237.27,599.21,670,524.38" transform="translate(-1.09 -1.12)"/><path id="A18" class="cls-2" d="M205.37,533.05l466.27-9.57" transform="translate(-1.09 -1.12)"/><path id="A16" class="cls-2" d="M232.13,462.25,670,524.38" transform="translate(-1.09 -1.12)"/><text class="cls-5" transform="translate(230.47 82.35)"><tspan class="cls-6">W</tspan><tspan x="12.09" y="0">as your parent</tspan><tspan x="0" y="16.8">born in {cntry}?</tspan></text><text class="cls-5" transform="translate(482.14 94.74)">Were you born <tspan x="0" y="16.8">in {cntry}?</tspan></text><text class="cls-5" transform="translate(219.45 212.28)">Is your parent a <tspan x="0" y="16.8">citizen of {cntry}?</tspan></text><text class="cls-5" transform="translate(216.71 349.91)">Are you adopted?</text><text class="cls-5" transform="translate(283.87 405.2)">Were you a dependent <tspan x="0" y="16.8">when your parent </tspan><tspan x="0" y="33.6">acquired citizenship?</tspan></text><text class="cls-5" transform="translate(81.98 459.36)">Were you pr<tspan class="cls-7" x="74.61" y="0">e</tspan><tspan x="82.03" y="0">viously a </tspan><tspan x="0" y="16.8">citizen of {cntry}?</tspan></text><text class="cls-5" transform="translate(49.11 535.69)">Click <tspan class="cls-8" x="34.41" y="0">t</tspan><tspan x="38.86" y="0">o see if you apply</tspan></text><text class="cls-5" transform="translate(86.02 603.91)">Do you h<tspan class="cls-9" x="54.43" y="0">a</tspan><tspan x="61.9" y="0">ve a cultu</tspan><tspan class="cls-8" x="122" y="0">r</tspan><tspan x="126.72" y="0">al </tspan><tspan x="0" y="16.8">affinity for {cntry}?</tspan></text><text class="cls-5" transform="translate(146.67 697.83)">Are you a refugee?</text><text class="cls-5" transform="translate(159.96 769.83)">Are you stateless?</text><text class="cls-5" transform="translate(251.64 799.21)">Do you h<tspan class="cls-9" x="54.43" y="0">a</tspan><tspan x="61.9" y="0">ve any special </tspan><tspan x="0" y="16.8">achi</tspan><tspan class="cls-7" x="26.25" y="16.8">e</tspan><tspan x="33.67" y="16.8">vements, contributions </tspan><tspan x="0" y="33.6">or se</tspan><tspan class="cls-10" x="31.12" y="33.6">r</tspan><tspan x="36.16" y="33.6">vices </tspan><tspan class="cls-8" x="72.21" y="33.6">t</tspan><tspan x="76.67" y="33.6">o {cntry}?</tspan></text><text class="cls-5" transform="translate(459.95 832.81)">H<tspan class="cls-9" x="9.95" y="0">a</tspan><tspan x="17.42" y="0">ve you made specific payments </tspan><tspan x="0" y="16.8">or investments in a country {cntry}?</tspan></text><text class="cls-5" transform="translate(1093.83 111.28)">Were your relative(s) <tspan x="0" y="16.8">a former citizen of {cntry}?</tspan></text><text class="cls-5" transform="translate(1022.06 173.41)">Are you married or in a <tspan x="0" y="16.8">registered-pa</tspan><tspan class="cls-11" x="83.73" y="16.8">r</tspan><tspan x="88.99" y="16.8">tnership </tspan><tspan x="0" y="33.6">in {cntry}?</tspan></text><text class="cls-5" transform="translate(998.58 269.31)">Is your spouse or registered<tspan x="0" y="16.8">-pa</tspan><tspan class="cls-11" x="20.05" y="16.8">r</tspan><tspan x="25.31" y="16.8">tner a citizen of {cntry}?</tspan></text><text class="cls-5" transform="translate(999.64 389.24)">Does {cntry} allow residence-<tspan x="0" y="16.8">-based acquisition?</tspan></text><text class="cls-5" transform="translate(881.31 436.19)">How long h<tspan class="cls-9" x="70.33" y="0">a</tspan><tspan x="77.81" y="0">ve you </tspan><tspan x="0" y="16.8">resided in {cntry}?</tspan></text><text class="cls-5" transform="translate(806.99 309.72)">Were you a dependent of<tspan x="0" y="16.8">your spouse when they </tspan><tspan x="0" y="33.6">acquired citizenship of {cntry}?</tspan></text><text class="cls-5" transform="translate(1108.72 458.74)">Does {cntry} allow <tspan x="0" y="16.8">residence-based </tspan><tspan x="0" y="33.6">acquisition?</tspan></text><text class="cls-5" transform="translate(1070.99 570.77)">Can you read, speak and <tspan x="0" y="16.8">or understand the </tspan><tspan x="0" y="33.6">national language of {cntry}?</tspan></text><text class="cls-5" transform="translate(995.66 644.1)">Do you h<tspan class="cls-9" x="54.43" y="0">a</tspan><tspan x="61.9" y="0">ve civic knowledge of {cntry}?</tspan></text><text class="cls-5" transform="translate(844.76 689.98)">Do you h<tspan class="cls-9" x="54.43" y="0">a</tspan><tspan x="61.9" y="0">ve a criminal record?</tspan></text><text class="cls-5" transform="translate(786.27 531.74)">Are you willing <tspan class="cls-8" x="95.2" y="0">t</tspan><tspan x="99.65" y="0">o renounce</tspan><tspan x="0" y="16.8">your origin country </tspan><tspan class="cls-8" x="120.97" y="16.8">t</tspan><tspan x="125.42" y="16.8">o gain </tspan><tspan x="0" y="33.6">citizenship </tspan><tspan class="cls-8" x="71.42" y="33.6">t</tspan><tspan x="75.87" y="33.6">o {cntry}?</tspan></text><text class="cls-5" transform="translate(912.61 747.1)">Were you a resident of {cntry} <tspan x="0" y="16.8">while you were a child?</tspan></text><text class="cls-5" transform="translate(794.79 809.91)">Were you a resident of {cntry} <tspan x="0" y="16.8">while you were a child?</tspan></text><text class="cls-5" transform="translate(812.85 100.14)">Were your relative(s) of {cntry} <tspan x="0" y="16.8">a parent or g</tspan><tspan class="cls-8" x="79.19" y="16.8">r</tspan><tspan x="83.91" y="16.8">andparent?</tspan></text><text class="cls-5" transform="translate(723.13 217.6)">Are your <tspan x="0" y="16.8">relative(s) alive?</tspan></text><text class="cls-5" transform="translate(492.69 232.73)">Did your parent acquire <tspan x="0" y="16.8">citizenship in {cntry} </tspan><tspan x="0" y="33.6">after your bi</tspan><tspan class="cls-11" x="75.54" y="33.6">r</tspan><tspan x="80.81" y="33.6">th?</tspan></text><circle id="Q1" class="cls-3" cx="241.18" cy="111.1" r="5.81"/><circle id="Q3" class="cls-3" cx="337.18" cy="218.1" r="5.81"/><circle id="Q2" class="cls-3" cx="490.69" cy="125.17" r="5.81"/><circle id="Q4" class="cls-3" cx="481.18" cy="248.1" r="5.81"/><circle id="Q5" class="cls-3" cx="336.18" cy="344.1" r="5.81"/><circle id="Q21" class="cls-3" cx="812.18" cy="778.1" r="5.81"/><circle id="Q23" class="cls-3" cx="985.21" cy="392.66" r="5.81"/><circle id="Q20" class="cls-3" cx="902.18" cy="754.1" r="5.81"/><circle id="Q27" class="cls-3" cx="984.18" cy="641.1" r="5.81"/><circle id="Q26" class="cls-3" cx="1060.18" cy="568.1" r="5.81"/><circle id="Q22" class="cls-3" cx="1098.18" cy="463.1" r="5.81"/><circle id="Q24" class="cls-3" cx="889.18" cy="465.1" r="5.81"/><circle id="Q25" class="cls-3" cx="794.18" cy="510.1" r="5.81"/><circle id="Q16" class="cls-3" cx="811.18" cy="359.1" r="5.81"/><circle id="Q15" class="cls-3" cx="983.81" cy="271.88" r="5.81"/><circle id="Q14" class="cls-3" cx="1010.18" cy="190.1" r="5.81"/><circle id="Q17" class="cls-3" cx="1084.18" cy="117.1" r="5.81"/><circle id="Q18" class="cls-3" cx="906.18" cy="134.1" r="5.81"/><circle id="Q19" class="cls-3" cx="761.18" cy="248.1" r="5.81"/><circle id="Q7" class="cls-3" cx="230.47" cy="462.03" r="5.81"/><circle id="Q7-2" data-name="Q7" class="cls-3" cx="205.49" cy="531.94" r="5.81"/><circle id="Q29" class="cls-3" cx="236.18" cy="598.1" r="5.81"/><circle id="Q9" class="cls-3" cx="275.37" cy="692.02" r="5.81"/><circle id="Q10" class="cls-3" cx="296.18" cy="759.1" r="5.81"/><circle id="Q11" class="cls-3" cx="393.99" cy="774.11" r="5.81"/><circle id="Q13" class="cls-3" cx="473.27" cy="807.21" r="5.81" transform="translate(-273.98 241.44) rotate(-22.5)"/><circle id="Q12" class="cls-3" cx="544.18" cy="753.1" r="5.81"/><circle id="Q6" class="cls-3" cx="421.18" cy="419.1" r="5.81"/><path id="head" class="cls-12" d="M642.82,437.06,654.37,308.2a3.16,3.16,0,0,0-.51-2,21.86,21.86,0,0,1-3.37-11,20.94,20.94,0,0,1,7.53-17,3.13,3.13,0,0,0,1.09-2.78,442.93,442.93,0,0,0-27.85-107.09c-22.68-55.64-67.8-127.61-153.8-157.73-5.64-2.17-18.46-5.23-22.17-1-3.33,3.76-1.83,8.14,1.73,15.5a3.1,3.1,0,0,1-1.42,4.12h0a3.1,3.1,0,0,1-4.22-1.52c-4.77-11-5.08-17.87-.83-22.57,7.49-8.21,26-1.74,28.89-.11a2.44,2.44,0,0,0,.41.18C627.35,55.33,659.79,227.45,665.78,273a3.1,3.1,0,0,0,3,2.68l1,.08c.55,0,1.1,0,1.64.08a3.1,3.1,0,0,0,3.4-2.65c6.16-45.71,39-217.3,187.35-267.59,2-.76,21.4-7.78,29.09,0,4.25,4.58,3.93,11.54-.84,22.57a3.09,3.09,0,0,1-4.22,1.52l0,0a3.07,3.07,0,0,1-1.46-4c3.42-7.67,4.12-13.18,1.82-15.59-2.56-2.68-16.53-1.15-22.17,1C776.61,39.52,731.36,112.13,708.42,168.41a429.59,429.59,0,0,0-28.13,108,3.08,3.08,0,0,0,.92,2.6,21.56,21.56,0,0,1,6.58,16.23,20.16,20.16,0,0,1-3.2,11.82,3.08,3.08,0,0,0-.5,2.06c3.5,26.67,5.58,100.7,6.26,126.21L690.14,615c0,.07,0,.12,0,.18.26,4.5,10.94,192.92-20.51,192.92-31.29,0-19.42-186.55-19-192.84,0-.11,0-.22,0-.33L643.3,448.7C643.3,448.56,642.81,437.2,642.82,437.06Z" transform="translate(-1.09 -1.12)"/><text class="cls-5" transform="translate(554.3 761.91)">H<tspan class="cls-9" x="9.95" y="0">a</tspan><tspan x="17.42" y="0">ve you worked </tspan><tspan x="0" y="16.8">in public se</tspan><tspan class="cls-10" x="71.09" y="16.8">r</tspan><tspan x="76.14" y="16.8">vice </tspan><tspan x="0" y="33.6">for {cntry}?</tspan></text><path d="M2.27,5.14a28,28,0,0,1,5-.41c2.56,0,4.46.6,5.66,1.68a5.51,5.51,0,0,1,1.78,4.24A5.9,5.9,0,0,1,13.17,15,8.35,8.35,0,0,1,7,17.19,8.48,8.48,0,0,1,4.88,17v8.11H2.27Zm2.61,9.74a8.43,8.43,0,0,0,2.17.22c3.16,0,5.07-1.55,5.07-4.31s-1.9-4-4.77-4A12.44,12.44,0,0,0,4.88,7Z" transform="translate(-1.09 -1.12)"/><path d="M25.42,25.11l-.23-1.83h-.08a5.41,5.41,0,0,1-4.44,2.16,4.14,4.14,0,0,1-4.43-4.16c0-3.52,3.11-5.45,8.72-5.41v-.31c0-1.17-.34-3.36-3.31-3.34a7.06,7.06,0,0,0-3.78,1.08l-.59-1.76a9.14,9.14,0,0,1,4.78-1.27c4.44,0,5.52,3,5.52,5.94v5.43a23,23,0,0,0,.22,3.47ZM25,17.7c-2.86-.06-6.13.45-6.13,3.26a2.33,2.33,0,0,0,2.47,2.53,3.63,3.63,0,0,0,3.53-2.43,2.8,2.8,0,0,0,.13-.83Z" transform="translate(-1.09 -1.12)"/><path d="M31.83,15.12c0-1.71,0-3.17-.12-4.52H34l.1,2.85h.1a4.39,4.39,0,0,1,4-3.18,2.82,2.82,0,0,1,.73.08v2.48a4,4,0,0,0-.9-.08c-1.86,0-3.17,1.4-3.53,3.38a6.81,6.81,0,0,0-.1,1.23v7.75H31.83Z" transform="translate(-1.09 -1.12)"/><path d="M42.82,18.33c0,3.57,2.32,5,5,5a9.81,9.81,0,0,0,4-.74l.47,1.87a11.75,11.75,0,0,1-4.84.93c-4.46,0-7.14-3-7.14-7.33s2.59-7.83,6.82-7.83c4.74,0,6,4.15,6,6.83A7.33,7.33,0,0,1,53,18.33Zm7.72-1.9c0-1.66-.68-4.27-3.64-4.27-2.69,0-3.84,2.44-4,4.27Z" transform="translate(-1.09 -1.12)"/><path d="M56.37,14.52c0-1.51,0-2.72-.12-3.92h2.34L58.73,13h.07a5.38,5.38,0,0,1,4.8-2.72c2,0,5.11,1.2,5.11,6.19v8.65H66.09V16.75c0-2.35-.88-4.31-3.35-4.31a3.79,3.79,0,0,0-3.56,2.7A4.14,4.14,0,0,0,59,16.37v8.74H56.37Z" transform="translate(-1.09 -1.12)"/><path d="M76.07,6.43V10.6h3.79v2H76.07v7.82c0,1.81.52,2.83,2,2.83a5.19,5.19,0,0,0,1.53-.19l.12,2a6.82,6.82,0,0,1-2.36.37,3.69,3.69,0,0,1-2.85-1.12,5.54,5.54,0,0,1-1-3.79V12.6H71.24v-2h2.25V7.11Z" transform="translate(-1.09 -1.12)"/><path d="M90.88,25.11l-.23-1.83h-.08a5.41,5.41,0,0,1-4.44,2.16,4.14,4.14,0,0,1-4.43-4.16c0-3.52,3.11-5.45,8.72-5.41v-.31c0-1.17-.34-3.36-3.31-3.34a7.06,7.06,0,0,0-3.78,1.08l-.6-1.76a9.2,9.2,0,0,1,4.79-1.27c4.44,0,5.52,3,5.52,5.94v5.43a21.78,21.78,0,0,0,.22,3.47Zm-.41-7.41c-2.86-.06-6.13.45-6.13,3.26a2.33,2.33,0,0,0,2.47,2.53,3.63,3.63,0,0,0,3.53-2.43,2.8,2.8,0,0,0,.13-.83Z" transform="translate(-1.09 -1.12)"/><path d="M109.81,10.6c-.07,1-.12,2.21-.12,4V23c0,3.36-.68,5.37-2.07,6.64a7.79,7.79,0,0,1-5.29,1.74,9.41,9.41,0,0,1-4.84-1.19l.66-2a8.22,8.22,0,0,0,4.27,1.16c2.7,0,4.68-1.41,4.68-5.09V22.62H107a5.17,5.17,0,0,1-4.62,2.44c-3.61,0-6.18-3.08-6.18-7.1,0-4.92,3.2-7.69,6.55-7.69a4.83,4.83,0,0,1,4.53,2.51h.06l.11-2.18Zm-2.74,5.71a4,4,0,0,0-.15-1.18,3.8,3.8,0,0,0-3.7-2.81c-2.52,0-4.32,2.13-4.32,5.5,0,2.84,1.46,5.23,4.29,5.23a3.86,3.86,0,0,0,3.67-2.72,4.77,4.77,0,0,0,.21-1.41Z" transform="translate(-1.09 -1.12)"/><path d="M115.54,18.33c0,3.57,2.32,5,5,5a9.82,9.82,0,0,0,4-.74L125,24.5a11.75,11.75,0,0,1-4.84.93c-4.46,0-7.14-3-7.14-7.33s2.59-7.83,6.82-7.83c4.74,0,6,4.15,6,6.83a6.22,6.22,0,0,1-.09,1.23Zm7.72-1.9c0-1.66-.68-4.27-3.64-4.27-2.69,0-3.84,2.44-4.05,4.27Z" transform="translate(-1.09 -1.12)"/><path d="M1186.08,5.17a27.16,27.16,0,0,1,5-.44c2.77,0,4.6.53,5.86,1.67a5,5,0,0,1,1.58,3.84,5.33,5.33,0,0,1-3.81,5.15v.08c1.54.54,2.48,2,3,4.09a33.49,33.49,0,0,0,1.55,5.55h-2.71a27.34,27.34,0,0,1-1.32-4.84c-.6-2.77-1.7-3.84-4.06-3.92h-2.47v8.76h-2.61Zm2.61,9.2h2.66c2.8,0,4.57-1.52,4.57-3.84,0-2.62-1.89-3.76-4.65-3.77a11.56,11.56,0,0,0-2.58.23Z" transform="translate(-1.09 -1.12)"/><path d="M1203.74,18.33c0,3.57,2.31,5,5,5a9.86,9.86,0,0,0,4-.74l.46,1.87a11.68,11.68,0,0,1-4.84.93c-4.46,0-7.14-3-7.14-7.33s2.59-7.83,6.83-7.83c4.73,0,6,4.15,6,6.83a6.22,6.22,0,0,1-.09,1.23Zm7.72-1.9c0-1.66-.68-4.27-3.64-4.27-2.69,0-3.84,2.44-4,4.27Z" transform="translate(-1.09 -1.12)"/><path d="M1217.29,3.81h2.62v21.3h-2.62Z" transform="translate(-1.09 -1.12)"/><path d="M1232.41,25.11l-.23-1.83h-.08a5.39,5.39,0,0,1-4.44,2.16,4.14,4.14,0,0,1-4.43-4.16c0-3.52,3.12-5.45,8.72-5.41v-.31c0-1.17-.33-3.36-3.3-3.34a7.06,7.06,0,0,0-3.78,1.08l-.6-1.76a9.17,9.17,0,0,1,4.79-1.27c4.43,0,5.51,3,5.51,5.94v5.43a23,23,0,0,0,.22,3.47ZM1232,17.7c-2.85-.06-6.12.45-6.12,3.26a2.33,2.33,0,0,0,2.46,2.53,3.65,3.65,0,0,0,3.54-2.43,2.78,2.78,0,0,0,.12-.83Z" transform="translate(-1.09 -1.12)"/><path d="M1241.88,6.43V10.6h3.79v2h-3.79v7.82c0,1.81.52,2.83,2,2.83a5.19,5.19,0,0,0,1.53-.19l.12,2a6.74,6.74,0,0,1-2.36.37,3.66,3.66,0,0,1-2.84-1.12,5.54,5.54,0,0,1-1-3.79V12.6H1237v-2h2.25V7.11Z" transform="translate(-1.09 -1.12)"/><path d="M1251.59,6.5a1.59,1.59,0,0,1-1.68,1.64,1.56,1.56,0,0,1-1.59-1.64,1.64,1.64,0,1,1,3.27,0Zm-2.95,18.61V10.6h2.62V25.11Z" transform="translate(-1.09 -1.12)"/><path d="M1256.67,10.6l2.85,8.14c.49,1.34.86,2.54,1.19,3.74h.08c.33-1.2.75-2.41,1.21-3.74l2.84-8.14h2.76l-5.71,14.51h-2.52l-5.52-14.51Z" transform="translate(-1.09 -1.12)"/><path d="M1271.27,18.33c0,3.57,2.31,5,5,5a9.86,9.86,0,0,0,4-.74l.46,1.87a11.68,11.68,0,0,1-4.84.93c-4.46,0-7.14-3-7.14-7.33s2.59-7.83,6.83-7.83c4.73,0,6,4.15,6,6.83a6.22,6.22,0,0,1-.09,1.23Zm7.72-1.9c0-1.66-.68-4.27-3.64-4.27-2.69,0-3.84,2.44-4,4.27Z" transform="translate(-1.09 -1.12)"/><path d="M1284.45,22.42a7.12,7.12,0,0,0,3.49,1c1.93,0,2.82-.95,2.82-2.16s-.77-1.94-2.69-2.66c-2.63-.95-3.87-2.38-3.86-4.11,0-2.34,1.9-4.26,5-4.26a6.9,6.9,0,0,1,3.55.9l-.65,1.91a5.75,5.75,0,0,0-3-.85c-1.56,0-2.4.9-2.4,2s.85,1.74,2.75,2.47c2.5.94,3.8,2.2,3.81,4.36,0,2.57-2,4.38-5.43,4.38a8.31,8.31,0,0,1-4.08-1Z" transform="translate(-1.09 -1.12)"/><path d="M1169.7,843.07a28.13,28.13,0,0,1,5-.43c2.77,0,4.6.53,5.86,1.66a5.08,5.08,0,0,1,1.58,3.85,5.34,5.34,0,0,1-3.81,5.15v.07c1.54.54,2.48,2,3,4.1a33.81,33.81,0,0,0,1.55,5.55h-2.71a27.56,27.56,0,0,1-1.32-4.85c-.6-2.76-1.7-3.84-4.06-3.92h-2.47V863h-2.61Zm2.61,9.21H1175c2.8,0,4.57-1.52,4.57-3.84,0-2.63-1.89-3.77-4.65-3.77a11,11,0,0,0-2.58.23Z" transform="translate(-1.09 -1.12)"/><path d="M1187.36,856.24c.05,3.56,2.31,5,5,5a9.67,9.67,0,0,0,4-.75l.46,1.88a11.71,11.71,0,0,1-4.84.92c-4.46,0-7.14-3-7.14-7.32s2.59-7.83,6.83-7.83c4.73,0,6,4.15,6,6.82a6.41,6.41,0,0,1-.09,1.24Zm7.72-1.9c0-1.66-.68-4.27-3.64-4.27-2.69,0-3.84,2.43-4,4.27Z" transform="translate(-1.09 -1.12)"/><path d="M1200.54,860.33a7.12,7.12,0,0,0,3.49,1c1.93,0,2.82-.94,2.82-2.16s-.77-1.93-2.69-2.65c-2.62-.95-3.87-2.38-3.86-4.12,0-2.34,1.9-4.25,5-4.25a7,7,0,0,1,3.55.89l-.65,1.92a5.7,5.7,0,0,0-3-.86c-1.56,0-2.4.9-2.4,2s.85,1.73,2.75,2.47c2.5.93,3.8,2.19,3.81,4.36,0,2.57-2,4.37-5.43,4.37a8.24,8.24,0,0,1-4.07-1Z" transform="translate(-1.09 -1.12)"/><path d="M1215.74,844.41a1.6,1.6,0,0,1-1.68,1.64,1.57,1.57,0,0,1-1.59-1.64,1.64,1.64,0,1,1,3.27,0Zm-3,18.61V848.51h2.62V863Z" transform="translate(-1.09 -1.12)"/><path d="M1232.33,841.72v17.55c0,1.29.05,2.74.12,3.75h-2.34l-.14-2.51h-.07a5.32,5.32,0,0,1-4.92,2.84c-3.52,0-6.23-3-6.23-7.38,0-4.85,3-7.79,6.52-7.79a4.84,4.84,0,0,1,4.38,2.2h.06v-8.66Zm-2.62,12.69a5.48,5.48,0,0,0-.11-1.13,3.91,3.91,0,0,0-3.82-3c-2.74,0-4.37,2.39-4.37,5.58,0,2.95,1.47,5.39,4.31,5.39a4,4,0,0,0,3.86-3.16,4.52,4.52,0,0,0,.13-1.14Z" transform="translate(-1.09 -1.12)"/><path d="M1238.21,856.24c0,3.56,2.31,5,5,5a9.67,9.67,0,0,0,4-.75l.46,1.88a11.71,11.71,0,0,1-4.84.92c-4.46,0-7.14-3-7.14-7.32s2.59-7.83,6.83-7.83c4.73,0,6,4.15,6,6.82a6.41,6.41,0,0,1-.09,1.24Zm7.72-1.9c0-1.66-.68-4.27-3.64-4.27-2.69,0-3.84,2.43-4,4.27Z" transform="translate(-1.09 -1.12)"/><path d="M1251.76,852.43c0-1.52,0-2.72-.12-3.92H1254l.15,2.38h.07a5.35,5.35,0,0,1,4.8-2.71c2,0,5.11,1.2,5.11,6.18V863h-2.63v-8.37c0-2.34-.88-4.31-3.35-4.31a3.79,3.79,0,0,0-3.55,2.71,4.06,4.06,0,0,0-.19,1.22V863h-2.62Z" transform="translate(-1.09 -1.12)"/><path d="M1278.75,862.49a10,10,0,0,1-4.16.84c-4.37,0-7.24-3-7.24-7.41a7.4,7.4,0,0,1,7.8-7.74,8.46,8.46,0,0,1,3.66.78l-.58,2a6.5,6.5,0,0,0-3.09-.7c-3.31,0-5.12,2.48-5.12,5.5,0,3.36,2.16,5.43,5.06,5.43a7.71,7.71,0,0,0,3.23-.7Z" transform="translate(-1.09 -1.12)"/><path d="M1283.15,856.24c0,3.56,2.31,5,5,5a9.67,9.67,0,0,0,4-.75l.46,1.88a11.71,11.71,0,0,1-4.84.92c-4.46,0-7.14-3-7.14-7.32s2.59-7.83,6.83-7.83c4.73,0,6,4.15,6,6.82a6.41,6.41,0,0,1-.09,1.24Zm7.72-1.9c0-1.66-.68-4.27-3.64-4.27-2.69,0-3.84,2.43-4,4.27Z" transform="translate(-1.09 -1.12)"/><path d="M19.56,852.7c0,6.94-4.22,10.65-9.38,10.65-5.36,0-9.09-4.16-9.09-10.27,0-6.4,4-10.61,9.37-10.61S19.56,846.7,19.56,852.7ZM3.86,853c0,4.33,2.35,8.2,6.46,8.2s6.48-3.81,6.48-8.4c0-4-2.1-8.23-6.44-8.23S3.86,848.6,3.86,853Z" transform="translate(-1.09 -1.12)"/><path d="M26.54,844.33v4.18h3.79v2H26.54v7.82c0,1.8.52,2.82,2,2.82a5.19,5.19,0,0,0,1.53-.19l.12,2a6.86,6.86,0,0,1-2.36.36A3.69,3.69,0,0,1,25,862.21a5.53,5.53,0,0,1-1-3.78v-7.92H21.71v-2H24V845Z" transform="translate(-1.09 -1.12)"/><path d="M33.3,841.72h2.63v9H36a5.4,5.4,0,0,1,4.6-2.59c1.95,0,5,1.19,5,6.2V863H43v-8.36c0-2.34-.89-4.3-3.35-4.3A3.82,3.82,0,0,0,36.11,853a3.49,3.49,0,0,0-.18,1.26V863H33.3Z" transform="translate(-1.09 -1.12)"/><path d="M51.43,856.24c0,3.56,2.32,5,5,5a9.62,9.62,0,0,0,4-.75l.47,1.88a11.79,11.79,0,0,1-4.84.92c-4.46,0-7.14-3-7.14-7.32s2.59-7.83,6.82-7.83c4.74,0,6,4.15,6,6.82a6.41,6.41,0,0,1-.09,1.24Zm7.72-1.9c0-1.66-.68-4.27-3.64-4.27-2.69,0-3.84,2.43-4,4.27Z" transform="translate(-1.09 -1.12)"/><path d="M65,853c0-1.72,0-3.18-.12-4.52h2.31l.1,2.84h.1a4.39,4.39,0,0,1,4-3.17,3.35,3.35,0,0,1,.73.07v2.48a4.77,4.77,0,0,0-.9-.07c-1.86,0-3.17,1.4-3.53,3.37a6.86,6.86,0,0,0-.11,1.23V863H65Z" transform="translate(-1.09 -1.12)"/></g></g></svg>