<?xml version="1.0" encoding="utf-8"?>
<!-- Generator: Adobe Illustrator 26.0.1, SVG Export Plug-In . SVG Version: 6.00 Build 0)  -->
<svg version="1.1" id="butterfly-path" xmlns="http://www.w3.org/2000/svg" xmlns:xlink="http://www.w3.org/1999/xlink" x="0px" y="0px"
	viewBox="0 0 1292.3 920" style="enable-background:new 0 0 1292.3 920;" xml:space="preserve">
<defs>
  <linearGradient id="citizenship__achieved">
    <stop offset="0%" style="stop-color:#ae8625;" />
    <stop offset="45%" style="stop-color:#ae8625;" />
    <stop offset="50%" style="stop-color:#f7ef8a;" />
    <stop offset="65%" style="stop-color:#ae8625;" />
    <stop offset="100%" style="stop-color:#ae8625;" />
  </linearGradient>
</defs>
<path id="butterfly__wings" d="M1141,523.7c-5.4,21.3-19.9,39.1-39.6,48.6c12.1,16.5,13.7,38.5,4,56.5
	c-10,17-26.9,29-46.3,32.8c0,0,27.8,94.6-44.7,126.2c-21.7,8.6-46.3,4.5-64.1-10.6c0,0-2.7,34.2-50.1,43.4s-118-45.4-139.1-98
	c0,0-64.5-90.1-71.5-108.5c0,0,11.3,193-20.5,193s-19-193-19-193S539.4,827.6,441.9,822.4c-27.6,1.3-51.7-18.6-55.5-45.9
	c0,0-43.5,42-95-10.3c-30.6-25.9-36.9-70.6-14.5-103.9c0,0-36.9-4-46.1-32.8c-7.5-18.6-5.5-39.7,5.3-56.6
	c-24.9-8.9-41.3-32.6-40.9-59c-2.6-48.8,35.9-52.7,35.9-52.7s-34.4-32.8,1.3-82.7c30.4-42.1,83.1-21,99-14.5
	c-9.2-11.7-47.5-55.1-72.5-149.7c0,0-14.5-65.7-72.6-80.1c0,0,0-27.6,51.3-31.5c0,0-7.9-22.3,15.9-22.3c8.5,1.9,16.6,5.4,23.7,10.5
	c12.4,6.6,27.2,6.6,39.6,0c10.5-5.2,29-9.2,38.5,3.9C358.9,81,373,73,386.7,76.7c0.4,0.1,0.8,0.2,1.1,0.3
	c11.1,3.3,19.3,12.8,21,24.2c0,0,17.1-18.6,54.1-10.6s101.6,43.4,141,155.1c0,0,34.3,114.9,38.5,190.5L654,306.1
	c-2.5-3.5-3.9-7.6-4-11.9c-0.3-7.1,3-13.9,8.8-18c-4.7-37.3-14.1-73.9-28.1-108.9C608.1,111.7,563,39.8,477,9.6
	c-5.6-2.2-18.5-5.2-22.2-1s-1.4,9.2,3.1,18.2l-5.6,2.8c-6-12.8-6.8-20.4-2.2-25.5c7.7-8.4,26.9-1.4,29.1,0
	c150.8,51,181.5,229.7,186.5,270.5c1.2-0.1,2.4-0.1,3.6,0c1.6,0,3.1,0.2,4.6,0.6C678.9,235,709.5,56,861.7,4.4
	c2-0.8,21.4-7.8,29.1,0c4.6,5,3.8,12.8-2.2,25.5l-5.7-2.8c4.5-9.1,5.6-15.6,3.1-18.2s-16.5-1.1-22.2,1
	C776.1,38.5,730.9,111.1,708,167.4c-14.2,35.1-23.8,72-28.3,109.6c5.1,4.2,7.9,10.6,7.7,17.2c0.2,4.6-1.1,9.1-3.8,12.8
	c3.6,25.6,5.7,101.5,6.4,127.3c0,0,9.2-118.2,31.7-154.9c0,0,30.4-149.8,143.8-186.6c20.1-7.5,42.6-5.1,60.8,6.5
	c3.4-12.2,13.8-21,26.4-22.3c5.9-1.8,12.4-1.2,17.9,1.8c5.4,3,9.4,8,11.1,14c0,0,5.3-14.4,50.1,0c0,0,7.9,12.8,46.3-12.8
	c0,0,30.2-6.6,21,22.3c21.6-2.8,42.7,8.2,52.8,27.6c0,0-56.8,12-77.8,98.6c-13.8,50.9-38.1,98.4-71.3,139.4
	c36.5-19.3,81.5-10.5,108.2,21c13.9,22.3,11.7,51-5.2,71C1128.8,472.4,1142.7,497.3,1141,523.7L1141,523.7z"/>
<g id="butterfly__paths">
	<path id="A06f" d="M1098.2,463.6l-247,203.9L668.5,520.4"/>
	<path id="A07" d="M901.7,753.1L672.4,520.4"/>
	<path id="A01a" d="M488.9,124.8l-150.5,93.5l328.3,302.8"/>
	<path id="A02a" d="M491.7,125.1l176.8,395.3"/>
	<path id="A02b" d="M241.7,112.1l248,11.5"/>
	<path id="A09" d="M337.2,217.6l144,31l-60.5,171l247.8,100.8"/>
	<path id="A14" d="M337.2,217.6l144,31l-60.5,170.5l247.8,101.3"/>
	<path id="A10" d="M336.2,217.6v127l332.7,178.7"/>
	<path id="A08" d="M1010.2,190.1l-26.4,81.8L670.5,522.4"/>
	<path id="A11" d="M1084.7,116.6l-178.5,15.5L668.5,520.4"/>
	<path id="A12a" d="M1084.7,116.6l-178.5,15.5l-145,116.5l-90.6,273.8"/>
	<path id="A12b" d="M1084.7,116.6l-178.5,15.5l-145,116.5l-90.6,276.7"/>
	<path id="A13" d="M1010.2,190.1l-26.4,81.8l-171.4,85.2L668.5,520.4"/>
	<path id="A21" d="M814.7,783.6L670.5,522.4"/>
	<path id="A06e" d="M1099.2,463.6l-113.5,177L670.5,522.4"/>
	<path id="A06d" d="M1099.2,463.1l-38,105l-390.6-45.7"/>
	<path id="A06a" d="M1098.7,462.1l-113.5-69.4L670.5,522.4"/>
	<path id="A06b" d="M1097.2,463.6l-208,1.5l-218.6,57.3"/>
	<path id="A06c" d="M1098.2,462.1l-304.5,48.5l-121.3,9.8"/>
	<path id="A25" d="M544.7,752.6l125.9-227.3"/>
	<path id="A26" d="M472.2,806.1l200.2-280.8"/>
	<path id="A24" d="M394.5,773.8l276.1-248.5"/>
	<path id="A23" d="M296.2,758.6l372.7-235.3"/>
	<path id="A22" d="M275.4,692l393.5-168.8"/>
	<path id="A19" d="M236.2,598.1l432.7-74.8"/>
	<path id="A18" d="M204.3,531.9l466.3-9.6"/>
	<path id="A16" d="M231,461.1l437.9,62.1"/>
</g>
<path id="butterfly__head" d="M641.7,435.9L653.2,307c0.1-0.7-0.1-1.4-0.5-2c-2.1-3.3-3.2-7.1-3.4-11
	c-0.3-6.5,2.5-12.8,7.5-17c0.8-0.7,1.2-1.7,1.1-2.8c-4.8-36.7-14.1-72.7-27.8-107.1C607.5,111.6,562.4,39.6,476.4,9.5
	c-5.6-2.2-18.5-5.2-22.2-1c-3.3,3.8-1.8,8.1,1.7,15.5c0.7,1.5,0.1,3.4-1.4,4.1l0,0c-1.5,0.8-3.4,0.1-4.2-1.4c0,0,0-0.1-0.1-0.1
	c-4.8-11-5.1-17.9-0.8-22.6c7.5-8.2,26-1.7,28.9-0.1c0.1,0.1,0.3,0.1,0.4,0.2c147.5,50.1,179.9,222.2,185.9,267.8
	c0.2,1.5,1.5,2.6,3,2.7l1,0.1c0.5,0,1.1,0,1.6,0.1c1.7,0.2,3.2-1,3.4-2.6c6.2-45.7,39-217.3,187.3-267.6c2-0.8,21.4-7.8,29.1,0
	c4.2,4.6,3.9,11.5-0.8,22.6c-0.7,1.6-2.5,2.3-4.1,1.6c-0.1,0-0.1,0-0.1-0.1l0,0c-1.5-0.7-2.1-2.5-1.5-4c3.4-7.7,4.1-13.2,1.8-15.6
	c-2.6-2.7-16.5-1.1-22.2,1c-87.8,28.4-133,101-156,157.3c-14,34.6-23.5,70.9-28.1,108c-0.1,1,0.2,1.9,0.9,2.6
	c4.4,4.2,6.8,10.1,6.6,16.2c0.2,4.2-0.9,8.3-3.2,11.8c-0.4,0.6-0.6,1.3-0.5,2.1c3.5,26.7,5.6,100.7,6.3,126.2L689,613.9
	c0,0.1,0,0.1,0,0.2c0.3,4.5,10.9,192.9-20.5,192.9c-31.3,0-19.4-186.5-19-192.8c0-0.1,0-0.2,0-0.3l-7.3-166.2
	C642.2,447.4,641.7,436.1,641.7,435.9z"/>
<g id="butterfly__questions"></g>
<g id="butterfly__circles">
	<circle id="Q29" cx="236.2" cy="598.1" r="5.8"/>
	<circle id="Q28" cx="851.2" cy="666.1" r="5.8"/>
	<circle id="Q27" cx="984.2" cy="641.1" r="5.8"/>
	<circle id="Q26" cx="1060.2" cy="568.1" r="5.8"/>
	<circle id="Q25" cx="794.2" cy="510.1" r="5.8"/>
	<circle id="Q24" cx="889.2" cy="465.1" r="5.8"/>
	<circle id="Q23" cx="985.2" cy="392.7" r="5.8"/>
	<circle id="Q22" cx="1098.2" cy="463.1" r="5.8"/>
	<circle id="Q21" cx="812.2" cy="778.1" r="5.8"/>
	<circle id="Q20" cx="902.2" cy="754.1" r="5.8"/>
	<circle id="Q19" cx="761.2" cy="248.1" r="5.8"/>
	<circle id="Q18" cx="906.2" cy="134.1" r="5.8"/>
	<circle id="Q17" cx="1084.2" cy="117.1" r="5.8"/>
	<circle id="Q16" cx="811.2" cy="359.1" r="5.8"/>
	<circle id="Q15" cx="983.8" cy="271.9" r="5.8"/>
	<circle id="Q14" cx="1010.2" cy="190.1" r="5.8"/>
	<circle id="Q13" cx="472.2" cy="806.1" r="5.8"/>
	<circle id="Q12" cx="544.2" cy="753.1" r="5.8"/>
	<circle id="Q11" cx="394" cy="774.1" r="5.8"/>
	<circle id="Q10" cx="296.2" cy="759.1" r="5.8"/>
	<circle id="Q08" cx="205.5" cy="531.9" r="5.8"/>
	<circle id="Q09" cx="275.4" cy="692" r="5.8"/>
	<circle id="Q07" cx="230.5" cy="462" r="5.8"/>
	<circle id="Q06" cx="421.2" cy="419.1" r="5.8"/>
	<circle id="Q05" cx="336.2" cy="344.1" r="5.8"/>
	<circle id="Q04" cx="481.2" cy="248.1" r="5.8"/>
	<circle id="Q03" cx="337.2" cy="218.1" r="5.8"/>
	<circle id="Q02" cx="490.7" cy="125.2" r="5.8"/>
	<circle id="Q01" cx="241.2" cy="111.1" r="5.8"/>
</g>
</svg>

